:SAMPLES-PER-SECOND 24
:FULLY-SPECIFIED
:DEGREES
429
root  -12.6143 40.1168 -17.0408 -172.715 18.9919 -175.928
RightUpLeg  -21.1877 -7.04105 -5.11361
RightLeg  34.4143 -13.6873 -10.1159
RightFoot  -2.53926 -0.527996 6.62504
RightToes  -2.09809e-008 3.77894e-005 6.81332e-007
Spine  -3.61016 -4.49959 -9.89501
Spine1  10.4265 -8.31066 14.5327
HEad  -12.265 17.9785 -3.15598
LeftShoulder1  6.4681 -12.3739 -34.7216
LeftArm  9.64198 21.8414 -33.3866
LeftForeArm  168.744 -68.5533 -155.093
LeftHand  -0.292323 -2.57572 4.47594
RightShoulder  3.08474 5.47805 28.3998
RightArm  6.43677 -27.9775 33.6645
RightForeArm  159.255 73.1467 146.59
RightHand  -0.532161 9.25768 -4.59948
LeftUpLeg  -14.6636 8.56439 0.902036
LeftLeg  16.0036 37.4768 8.38432
LeftFoot  -5.26 -0.103151 2.54666
LeftToes  1.24773e-006 1.46318e-008 1.32523e-009
430
root  -12.237 40.1703 -15.9737 -172.189 24.7663 -176.089
RightUpLeg  -17.5472 -7.84242 -7.66302
RightLeg  33.508 -14.8649 -10.5834
RightFoot  -2.49774 -0.423367 5.2517
RightToes  -2.09809e-008 3.77894e-005 6.81332e-007
Spine  -5.52088 -4.02734 -10.406
Spine1  12.3705 -7.96374 14.5715
HEad  -12.7829 19.904 -4.35453
LeftShoulder1  6.39757 -12.2555 -34.583
LeftArm  9.62835 22.6594 -32.9513
LeftForeArm  169.442 -68.3206 -155.458
LeftHand  -0.319994 -2.65911 4.83586
RightShoulder  3.07599 5.45466 28.392
RightArm  5.58955 -28.4348 34.2361
RightForeArm  160.163 72.8703 147.284
RightHand  -0.543447 9.27278 -4.6842
LeftUpLeg  -15.4707 9.54762 2.14474
LeftLeg  15.6731 42.1981 8.59595
LeftFoot  -2.95981 -0.220631 3.25062
LeftToes  1.24773e-006 1.46318e-008 1.32523e-009
431
root  -11.8017 40.2775 -14.9493 -171.724 30.2342 -175.846
RightUpLeg  -13.8613 -9.02166 -9.99909
RightLeg  31.2716 -13.9861 -9.22383
RightFoot  -1.62976 -0.432346 4.9544
RightToes  -2.09809e-008 3.77894e-005 6.81332e-007
Spine  -6.779 -3.49753 -9.06159
Spine1  13 -7.1709 13.3735
HEad  -12.3132 22.0292 -5.64237
LeftShoulder1  6.48032 -12.2873 -35.0181
LeftArm  8.99159 24.8696 -32.8843
LeftForeArm  170.228 -67.4692 -156.521
LeftHand  -0.32864 -2.56698 5.01157
RightShoulder  3.16342 5.55487 28.9925
RightArm  5.91765 -30.5493 34.1991
RightForeArm  162.321 71.7231 149.684
RightHand  -0.572108 9.24653 -4.9177
LeftUpLeg  -15.0344 9.75925 4.17776
LeftLeg  13.8457 47.0367 7.62504
LeftFoot  -0.382628 -0.377022 3.95255
LeftToes  1.24773e-006 1.46318e-008 1.32523e-009
432
root  -11.2632 40.3695 -13.8756 -171.084 35.4529 -175.646
RightUpLeg  -11.2773 -9.43282 -12.1837
RightLeg  29.3351 -12.8419 -7.91648
RightFoot  -0.293837 -0.567113 5.84583
RightToes  -2.09809e-008 3.77894e-005 6.81332e-007
Spine  -8.11713 -3.08976 -7.80361
Spine1  13.3191 -6.4504 12.1697
HEad  -11.5058 24.684 -7.00207
LeftShoulder1  6.49971 -12.2504 -35.2336
LeftArm  7.86533 27.5518 -33.7633
LeftForeArm  171.763 -66.0622 -158.15
LeftHand  -0.306061 -2.47262 4.73055
RightShoulder  3.26109 5.6662 29.6482
RightArm  7.16396 -32.674 33.9981
RightForeArm  164.776 70.4879 151.982
RightHand  -0.59028 9.36544 -5.02545
LeftUpLeg  -14.4592 9.94956 6.28116
LeftLeg  11.6447 51.7366 6.37938
LeftFoot  1.89444 -0.549866 4.63452
LeftToes  1.24773e-006 1.46318e-008 1.32523e-009
433
root  -10.6305 40.3982 -12.6568 -170.106 39.9356 -175.116
RightUpLeg  -9.61346 -8.07433 -13.1896
RightLeg  27.7865 -12.9168 -7.49808
RightFoot  1.44346 -0.428929 3.98939
RightToes  -2.09809e-008 3.77894e-005 6.81332e-007
Spine  -9.28809 -2.91629 -6.89124
Spine1  13.7421 -6.13252 11.5242
HEad  -11.4222 27.5103 -8.37817
LeftShoulder1  6.43461 -12.1298 -35.1381
LeftArm  6.35258 29.3234 -35.1027
LeftForeArm  173.137 -64.7453 -159.522
LeftHand  -0.284366 -2.38288 4.45446
RightShoulder  3.33611 5.7595 30.109
RightArm  8.34673 -33.894 34.209
RightForeArm  166.587 69.7141 153.322
RightHand  -0.496878 9.77832 -4.19497
LeftUpLeg  -14.366 11.1964 8.65381
LeftLeg  9.73209 53.832 5.04975
LeftFoot  3.53435 -0.737565 5.476
LeftToes  1.24773e-006 1.46318e-008 1.32523e-009
434
root  -9.94724 40.236 -11.2098 -168.731 43.6275 -174.185
RightUpLeg  -9.23401 -4.78743 -12.8314
RightLeg  27.5664 -12.8098 -7.37827
RightFoot  3.92279 -0.622252 4.73069
RightToes  -2.09809e-008 3.77894e-005 6.81332e-007
Spine  -10.2994 -2.8902 -6.84091
Spine1  14.7305 -6.2607 11.8247
HEad  -12.7859 29.8923 -9.84284
LeftShoulder1  6.44815 -12.1043 -35.2895
LeftArm  4.46736 28.7894 -36.0081
LeftForeArm  173.089 -64.4864 -159.742
LeftHand  -0.274555 -2.36047 4.31849
RightShoulder  3.39801 5.83789 30.4752
RightArm  8.36102 -33.2216 34.9898
RightForeArm  165.737 70.0432 152.751
RightHand  -0.374514 10.2696 -3.1788
LeftUpLeg  -15.6958 13.4193 11.243
LeftLeg  10.717 52.3623 5.87998
LeftFoot  4.89874 -0.736495 4.95373
LeftToes  1.24773e-006 1.46318e-008 1.32523e-009
435
root  -9.23124 39.7208 -9.49864 -167.998 46.0334 -174.092
RightUpLeg  -9.09273 -2.35748 -12.4293
RightLeg  27.7511 -10.5056 -6.16385
RightFoot  2.22844 -1.58074 13.3595
RightToes  -2.09809e-008 3.77894e-005 6.81332e-007
Spine  -9.07968 -3.1102 -8.97405
Spine1  13.6719 -6.7459 13.5214
HEad  -14.6884 31.5995 -10.9987
LeftShoulder1  6.41421 -12.0436 -35.2339
LeftArm  3.02737 26.808 -35.8652
LeftForeArm  172.519 -64.8788 -159.337
LeftHand  -0.245257 -2.30398 3.90237
RightShoulder  3.50626 5.9677 31.1278
RightArm  7.61452 -31.9639 35.8425
RightForeArm  164.104 70.7967 151.426
RightHand  -0.298266 10.3066 -2.61029
LeftUpLeg  -19.5944 17.8986 12.3239
LeftLeg  16.0513 45.8487 10.4154
LeftFoot  5.59376 -0.514766 3.22818
LeftToes  1.24773e-006 1.46318e-008 1.32523e-009
436
root  -8.57422 38.8598 -7.66329 -167.817 46.6494 -173.73
RightUpLeg  -7.43642 -4.07826 -11.0124
RightLeg  26.1332 -5.8961 -3.37364
RightFoot  -7.36495 -0.788358 20.1251
RightToes  -2.09809e-008 3.77894e-005 6.81332e-007
Spine  -5.20875 -3.18896 -10.3697
Spine1  10.7174 -7.11601 15.2881
HEad  -17.454 32.0977 -12.4049
LeftShoulder1  6.54838 -12.2314 -35.5845
LeftArm  2.51449 23.0494 -33.4333
LeftForeArm  170.789 -65.4117 -158.668
LeftHand  -0.269137 -1.86191 4.49219
RightShoulder  3.60025 6.10507 31.5803
RightArm  6.76339 -31.0324 37.104
RightForeArm  163.426 70.8929 151.188
RightHand  -0.319804 9.731 -2.85366
LeftUpLeg  -25.1176 22.508 12.9608
LeftLeg  21.9661 34.6273 14.2372
LeftFoot  4.8877 -0.244682 1.50075
LeftToes  1.24773e-006 1.46318e-008 1.32523e-009
437
root  -8.142 37.9654 -5.92267 -166.419 47.6268 -170.777
RightUpLeg  -7.32994 -8.06921 -7.28847
RightLeg  26.426 -1.25722 -0.88252
RightFoot  -17.3126 0.709808 16.4762
RightToes  -2.09809e-008 3.77894e-005 6.81332e-007
Spine  -1.01825 -2.57754 -5.97419
Spine1  8.70338 -6.00663 12.7497
HEad  -21.5017 31.4653 -14.0824
LeftShoulder1  6.93584 -12.7076 -36.7219
LeftArm  2.02856 16.7398 -29.7044
LeftForeArm  168.507 -66.9655 -156.846
LeftHand  -0.365481 -1.5349 6.28273
RightShoulder  3.66487 6.21326 31.8302
RightArm  6.02151 -28.4028 38.4294
RightForeArm  160.83 71.6739 149.543
RightHand  -0.480603 9.28246 -4.18274
LeftUpLeg  -28.4896 21.9157 17.9911
LeftLeg  26.3624 24.881 13.0844
LeftFoot  3.20117 0.187484 -1.64524
LeftToes  1.24773e-006 1.46318e-008 1.32523e-009
438
root  -7.88991 37.4159 -4.45595 -164.595 51.2169 -167.681
RightUpLeg  -11.1586 -7.97815 -3.80532
RightLeg  31.9745 0.325866 -0.0257338
RightFoot  -20.9692 0.795955 11.0757
RightToes  -2.09809e-008 3.77894e-005 6.81332e-007
Spine  1.42265 -1.48072 -0.320247
Spine1  8.69637 -3.63649 7.44033
HEad  -24.865 30.9904 -15.1127
LeftShoulder1  7.24586 -13.0414 -37.6992
LeftArm  0.395735 11.1372 -28.0564
LeftForeArm  169.315 -68.9386 -154.687
LeftHand  -0.377407 -1.87738 6.21911
RightShoulder  3.6405 6.2121 31.5815
RightArm  5.68998 -23.8077 39.0723
RightForeArm  156.15 74.1088 143.957
RightHand  -0.57903 9.44554 -4.914
LeftUpLeg  -28.0833 19.2516 23.4128
LeftLeg  26.6234 16.982 9.38266
LeftFoot  1.30042 0.500054 -4.60904
LeftToes  1.24773e-006 1.46318e-008 1.32523e-009
439
root  -7.58477 37.3755 -3.46864 -165.483 55.5615 -168.463
RightUpLeg  -14.0528 -4.52618 -3.62303
RightLeg  35.8239 0.874693 0.420103
RightFoot  -21.3678 0.798118 10.7273
RightToes  -2.09809e-008 3.77894e-005 6.81332e-007
Spine  2.51025 -0.501797 0.197454
Spine1  8.67894 -1.863 4.67429
HEad  -25.3514 31.6192 -14.9276
LeftShoulder1  7.30393 -13.0903 -37.9125
LeftArm  -1.32014 11.0327 -29.0979
LeftForeArm  173.373 -68.1671 -156.109
LeftHand  -0.280448 -2.18593 4.49478
RightShoulder  3.54751 6.163 30.8008
RightArm  6.28611 -21.796 38.9091
RightForeArm  155.11 75.2129 141.082
RightHand  -0.481631 9.5734 -4.12479
LeftUpLeg  -24.6611 10.7126 25.9624
LeftLeg  24.0922 17.5604 8.71146
LeftFoot  -0.541868 0.357483 -3.74844
LeftToes  1.24773e-006 1.46318e-008 1.32523e-009
440
root  -7.23106 37.9851 -3.0462 -167.71 58.1174 -171.28
RightUpLeg  -13.1058 -2.5112 -4.72053
RightLeg  32.6535 0.865317 0.364312
RightFoot  -19.7718 0.612508 10.0076
RightToes  -2.09809e-008 3.77894e-005 6.81332e-007
Spine  2.25739 -0.34502 -0.321428
Spine1  8.05705 -1.27099 3.3464
HEad  -23.6684 32.996 -14.0611
LeftShoulder1  7.01517 -12.782 -37.0057
LeftArm  -1.01742 15.7617 -31.504
LeftForeArm  175.978 -64.6591 -159.889
LeftHand  -0.245711 -2.07151 4.01172
RightShoulder  3.44694 6.0895 30.021
RightArm  7.67586 -24.4687 38.6928
RightForeArm  159.202 73.2718 146.292
RightHand  -0.417594 9.55744 -3.63353
LeftUpLeg  -21.446 2.13048 24.8519
LeftLeg  19.923 22.2236 9.00195
LeftFoot  -0.670624 0.261453 -2.7543
LeftToes  1.24773e-006 1.46318e-008 1.32523e-009
441
root  -6.95166 39.077 -2.94054 -168.164 60.0623 -173.375
RightUpLeg  -11.7147 -1.37564 -5.52722
RightLeg  26.0784 0.6897 0.136143
RightFoot  -13.8309 0.0960328 8.64354
RightToes  -2.09809e-008 3.77894e-005 6.81332e-007
Spine  0.298359 -0.367268 0.22085
Spine1  7.48231 -0.829117 1.50942
HEad  -21.3224 34.5905 -13.9174
LeftShoulder1  6.8587 -12.5861 -36.5724
LeftArm  0.733865 21.993 -33.1159
LeftForeArm  176.847 -61.612 -162.36
LeftHand  -0.229636 -2.48795 3.60703
RightShoulder  3.3858 5.97325 29.8136
RightArm  9.37872 -28.9188 37.4775
RightForeArm  162.031 70.3598 151.793
RightHand  -0.424324 9.66421 -3.66401
LeftUpLeg  -19.8952 4.28714 20.5083
LeftLeg  14.9932 20.6041 6.95726
LeftFoot  1.2836 0.770502 -6.95083
LeftToes  1.24773e-006 1.46318e-008 1.32523e-009
442
root  -6.78842 40.0899 -2.97549 -167.58 62.6752 -175.194
RightUpLeg  -12.2325 -0.38374 -7.00693
RightLeg  20.6346 2.99789 1.0157
RightFoot  -7.53449 -0.451684 11.6203
RightToes  -2.09809e-008 3.77894e-005 6.81332e-007
Spine  -2.05923 -0.0528588 -0.541603
Spine1  6.54085 -0.435363 1.32029
HEad  -18.9373 36.3786 -14.775
LeftShoulder1  6.9624 -12.6683 -36.9831
LeftArm  1.74596 27.9762 -34.1696
LeftForeArm  177.034 -60.3244 -163.247
LeftHand  -0.0838679 -3.03589 1.38506
RightShoulder  3.35906 5.89424 29.8306
RightArm  11.1206 -32.7857 35.1225
RightForeArm  164.083 68.3522 154.745
RightHand  -0.364966 9.6905 -3.20294
LeftUpLeg  -19.8829 10.4917 15.5848
LeftLeg  13.0693 16.11 4.57843
LeftFoot  3.03033 1.59853 -12.7733
LeftToes  1.24773e-006 1.46318e-008 1.32523e-009
